<svg width="216" height="219" viewBox="0 0 216 219" fill="none" xmlns="http://www.w3.org/2000/svg">
<rect width="216" height="219" rx="50" fill="white"/>
<path d="M48.344 85.362L41.028 99.467V107H36.688V99.467L29.341 85.362H34.239L38.889 95.251L43.508 85.362H48.344ZM58.473 107.279C56.8197 107.279 55.3317 106.917 54.009 106.194C52.6863 105.45 51.6427 104.406 50.878 103.063C50.134 101.72 49.762 100.17 49.762 98.413C49.762 96.6563 50.1443 95.1063 50.909 93.763C51.6943 92.4197 52.7587 91.3863 54.102 90.663C55.4453 89.919 56.9437 89.547 58.597 89.547C60.2503 89.547 61.7487 89.919 63.092 90.663C64.4353 91.3863 65.4893 92.4197 66.254 93.763C67.0393 95.1063 67.432 96.6563 67.432 98.413C67.432 100.17 67.029 101.72 66.223 103.063C65.4377 104.406 64.363 105.45 62.999 106.194C61.6557 106.917 60.147 107.279 58.473 107.279ZM58.473 103.497C59.2583 103.497 59.992 103.311 60.674 102.939C61.3767 102.546 61.9347 101.968 62.348 101.203C62.7613 100.438 62.968 99.5083 62.968 98.413C62.968 96.7803 62.534 95.53 61.666 94.662C60.8187 93.7733 59.775 93.329 58.535 93.329C57.295 93.329 56.2513 93.7733 55.404 94.662C54.5773 95.53 54.164 96.7803 54.164 98.413C54.164 100.046 54.567 101.306 55.373 102.195C56.1997 103.063 57.233 103.497 58.473 103.497ZM86.8286 89.826V107H82.4576V104.83C81.8996 105.574 81.1659 106.163 80.2566 106.597C79.3679 107.01 78.3966 107.217 77.3426 107.217C75.9992 107.217 74.8109 106.938 73.7776 106.38C72.7442 105.801 71.9279 104.964 71.3286 103.869C70.7499 102.753 70.4606 101.43 70.4606 99.901V89.826H74.8006V99.281C74.8006 100.645 75.1416 101.699 75.8236 102.443C76.5056 103.166 77.4356 103.528 78.6136 103.528C79.8122 103.528 80.7526 103.166 81.4346 102.443C82.1166 101.699 82.4576 100.645 82.4576 99.281V89.826H86.8286ZM95.4507 92.492C96.0087 91.5827 96.732 90.8697 97.6207 90.353C98.53 89.8363 99.5633 89.578 100.721 89.578V94.135H99.5737C98.2097 94.135 97.1763 94.4553 96.4737 95.096C95.7917 95.7367 95.4507 96.8527 95.4507 98.444V107H91.1107V89.826H95.4507V92.492ZM122.151 107H117.811L107.984 92.151V107H103.644V85.331H107.984L117.811 100.211V85.331H122.151V107ZM134.066 107.279C132.412 107.279 130.924 106.917 129.602 106.194C128.279 105.45 127.235 104.406 126.471 103.063C125.727 101.72 125.355 100.17 125.355 98.413C125.355 96.6563 125.737 95.1063 126.502 93.763C127.287 92.4197 128.351 91.3863 129.695 90.663C131.038 89.919 132.536 89.547 134.19 89.547C135.843 89.547 137.341 89.919 138.685 90.663C140.028 91.3863 141.082 92.4197 141.847 93.763C142.632 95.1063 143.025 96.6563 143.025 98.413C143.025 100.17 142.622 101.72 141.816 103.063C141.03 104.406 139.956 105.45 138.592 106.194C137.248 106.917 135.74 107.279 134.066 107.279ZM134.066 103.497C134.851 103.497 135.585 103.311 136.267 102.939C136.969 102.546 137.527 101.968 137.941 101.203C138.354 100.438 138.561 99.5083 138.561 98.413C138.561 96.7803 138.127 95.53 137.259 94.662C136.411 93.7733 135.368 93.329 134.128 93.329C132.888 93.329 131.844 93.7733 130.997 94.662C130.17 95.53 129.757 96.7803 129.757 98.413C129.757 100.046 130.16 101.306 130.966 102.195C131.792 103.063 132.826 103.497 134.066 103.497ZM151.261 93.391V101.699C151.261 102.278 151.396 102.701 151.664 102.97C151.954 103.218 152.429 103.342 153.09 103.342H155.105V107H152.377C148.719 107 146.89 105.223 146.89 101.668V93.391H144.844V89.826H146.89V85.579H151.261V89.826H155.105V93.391H151.261ZM174.192 98.041C174.192 98.661 174.151 99.219 174.068 99.715H161.513C161.616 100.955 162.05 101.926 162.815 102.629C163.58 103.332 164.52 103.683 165.636 103.683C167.248 103.683 168.395 102.991 169.077 101.606H173.758C173.262 103.259 172.311 104.623 170.906 105.698C169.501 106.752 167.775 107.279 165.729 107.279C164.076 107.279 162.588 106.917 161.265 106.194C159.963 105.45 158.94 104.406 158.196 103.063C157.473 101.72 157.111 100.17 157.111 98.413C157.111 96.6357 157.473 95.0753 158.196 93.732C158.919 92.3887 159.932 91.3553 161.234 90.632C162.536 89.9087 164.034 89.547 165.729 89.547C167.362 89.547 168.819 89.8983 170.1 90.601C171.402 91.3037 172.404 92.306 173.107 93.608C173.83 94.8893 174.192 96.367 174.192 98.041ZM169.697 96.801C169.676 95.685 169.273 94.7963 168.488 94.135C167.703 93.453 166.742 93.112 165.605 93.112C164.53 93.112 163.621 93.4427 162.877 94.104C162.154 94.7447 161.709 95.6437 161.544 96.801H169.697ZM179.282 107.217C178.496 107.217 177.845 106.979 177.329 106.504C176.833 106.008 176.585 105.398 176.585 104.675C176.585 103.952 176.833 103.352 177.329 102.877C177.845 102.381 178.496 102.133 179.282 102.133C180.046 102.133 180.677 102.381 181.173 102.877C181.669 103.352 181.917 103.952 181.917 104.675C181.917 105.398 181.669 106.008 181.173 106.504C180.677 106.979 180.046 107.217 179.282 107.217Z" fill="#FE9237"/>
<path d="M30 132H188" stroke="#FE9237" stroke-width="2" stroke-linecap="round"/>
<path d="M30 174H188" stroke="#FE9237" stroke-width="2" stroke-linecap="round"/>
<path d="M30 153H188" stroke="#FE9237" stroke-width="2" stroke-linecap="round"/>
<path d="M0 55C0 50.357 0 48.0355 0.154133 46.077C2.08381 21.5582 21.5582 2.08381 46.077 0.154133C48.0355 0 50.357 0 55 0H161C165.643 0 167.965 0 169.923 0.154133C194.442 2.08381 213.916 21.5582 215.846 46.077C216 48.0355 216 50.357 216 55V55H0V55Z" fill="#FE9237"/>
</svg>
