<svg width="200" height="200" viewBox="0 0 200 200" fill="none" xmlns="http://www.w3.org/2000/svg">
<path d="M0 52H200V185C200 193.284 193.284 200 185 200H15C6.71573 200 0 193.284 0 185V52Z" fill="#FE9237" fill-opacity="0.1"/>
<path d="M40.344 75.362L33.028 89.467V97H28.688V89.467L21.341 75.362H26.239L30.889 85.251L35.508 75.362H40.344ZM50.473 97.279C48.8197 97.279 47.3317 96.9173 46.009 96.194C44.6863 95.45 43.6427 94.4063 42.878 93.063C42.134 91.7197 41.762 90.1697 41.762 88.413C41.762 86.6563 42.1443 85.1063 42.909 83.763C43.6943 82.4197 44.7587 81.3863 46.102 80.663C47.4453 79.919 48.9437 79.547 50.597 79.547C52.2503 79.547 53.7487 79.919 55.092 80.663C56.4353 81.3863 57.4893 82.4197 58.254 83.763C59.0393 85.1063 59.432 86.6563 59.432 88.413C59.432 90.1697 59.029 91.7197 58.223 93.063C57.4377 94.4063 56.363 95.45 54.999 96.194C53.6557 96.9173 52.147 97.279 50.473 97.279ZM50.473 93.497C51.2583 93.497 51.992 93.311 52.674 92.939C53.3767 92.5463 53.9347 91.9677 54.348 91.203C54.7613 90.4383 54.968 89.5083 54.968 88.413C54.968 86.7803 54.534 85.53 53.666 84.662C52.8187 83.7733 51.775 83.329 50.535 83.329C49.295 83.329 48.2513 83.7733 47.404 84.662C46.5773 85.53 46.164 86.7803 46.164 88.413C46.164 90.0457 46.567 91.3063 47.373 92.195C48.1997 93.063 49.233 93.497 50.473 93.497ZM78.8286 79.826V97H74.4576V94.83C73.8996 95.574 73.1659 96.163 72.2566 96.597C71.3679 97.0103 70.3966 97.217 69.3426 97.217C67.9992 97.217 66.8109 96.938 65.7776 96.38C64.7442 95.8013 63.9279 94.9643 63.3286 93.869C62.7499 92.753 62.4606 91.4303 62.4606 89.901V79.826H66.8006V89.281C66.8006 90.645 67.1416 91.699 67.8236 92.443C68.5056 93.1663 69.4356 93.528 70.6136 93.528C71.8122 93.528 72.7526 93.1663 73.4346 92.443C74.1166 91.699 74.4576 90.645 74.4576 89.281V79.826H78.8286ZM87.4507 82.492C88.0087 81.5827 88.732 80.8697 89.6207 80.353C90.53 79.8363 91.5633 79.578 92.7207 79.578V84.135H91.5737C90.2097 84.135 89.1763 84.4553 88.4737 85.096C87.7917 85.7367 87.4507 86.8527 87.4507 88.444V97H83.1107V79.826H87.4507V82.492ZM114.151 97H109.811L99.9839 82.151V97H95.6439V75.331H99.9839L109.811 90.211V75.331H114.151V97ZM126.066 97.279C124.412 97.279 122.924 96.9173 121.602 96.194C120.279 95.45 119.235 94.4063 118.471 93.063C117.727 91.7197 117.355 90.1697 117.355 88.413C117.355 86.6563 117.737 85.1063 118.502 83.763C119.287 82.4197 120.351 81.3863 121.695 80.663C123.038 79.919 124.536 79.547 126.19 79.547C127.843 79.547 129.341 79.919 130.685 80.663C132.028 81.3863 133.082 82.4197 133.847 83.763C134.632 85.1063 135.025 86.6563 135.025 88.413C135.025 90.1697 134.622 91.7197 133.816 93.063C133.03 94.4063 131.956 95.45 130.592 96.194C129.248 96.9173 127.74 97.279 126.066 97.279ZM126.066 93.497C126.851 93.497 127.585 93.311 128.267 92.939C128.969 92.5463 129.527 91.9677 129.941 91.203C130.354 90.4383 130.561 89.5083 130.561 88.413C130.561 86.7803 130.127 85.53 129.259 84.662C128.411 83.7733 127.368 83.329 126.128 83.329C124.888 83.329 123.844 83.7733 122.997 84.662C122.17 85.53 121.757 86.7803 121.757 88.413C121.757 90.0457 122.16 91.3063 122.966 92.195C123.792 93.063 124.826 93.497 126.066 93.497ZM143.261 83.391V91.699C143.261 92.2777 143.396 92.7013 143.664 92.97C143.954 93.218 144.429 93.342 145.09 93.342H147.105V97H144.377C140.719 97 138.89 95.2227 138.89 91.668V83.391H136.844V79.826H138.89V75.579H143.261V79.826H147.105V83.391H143.261ZM166.192 88.041C166.192 88.661 166.151 89.219 166.068 89.715H153.513C153.616 90.955 154.05 91.9263 154.815 92.629C155.58 93.3317 156.52 93.683 157.636 93.683C159.248 93.683 160.395 92.9907 161.077 91.606H165.758C165.262 93.2593 164.311 94.6233 162.906 95.698C161.501 96.752 159.775 97.279 157.729 97.279C156.076 97.279 154.588 96.9173 153.265 96.194C151.963 95.45 150.94 94.4063 150.196 93.063C149.473 91.7197 149.111 90.1697 149.111 88.413C149.111 86.6357 149.473 85.0753 150.196 83.732C150.919 82.3887 151.932 81.3553 153.234 80.632C154.536 79.9087 156.034 79.547 157.729 79.547C159.362 79.547 160.819 79.8983 162.1 80.601C163.402 81.3037 164.404 82.306 165.107 83.608C165.83 84.8893 166.192 86.367 166.192 88.041ZM161.697 86.801C161.676 85.685 161.273 84.7963 160.488 84.135C159.703 83.453 158.742 83.112 157.605 83.112C156.53 83.112 155.621 83.4427 154.877 84.104C154.154 84.7447 153.709 85.6437 153.544 86.801H161.697ZM171.282 97.217C170.496 97.217 169.845 96.9793 169.329 96.504C168.833 96.008 168.585 95.3983 168.585 94.675C168.585 93.9517 168.833 93.3523 169.329 92.877C169.845 92.381 170.496 92.133 171.282 92.133C172.046 92.133 172.677 92.381 173.173 92.877C173.669 93.3523 173.917 93.9517 173.917 94.675C173.917 95.3983 173.669 96.008 173.173 96.504C172.677 96.9793 172.046 97.217 171.282 97.217Z" fill="#FE9237"/>
<path d="M22 122H180" stroke="#FE9237" stroke-width="2" stroke-linecap="round"/>
<path d="M22 164H180" stroke="#FE9237" stroke-width="2" stroke-linecap="round"/>
<path d="M22 143H180" stroke="#FE9237" stroke-width="2" stroke-linecap="round"/>
<path d="M0 15C0 6.71573 6.71573 0 15 0H185C193.284 0 200 6.71573 200 15V52H0V15Z" fill="#FE9237"/>
</svg>
